<svg xmlns="http://www.w3.org/2000/svg" width="48" height="42.9" viewBox="0 0 48 42.9"><path d="M46.4,20.2,28,1.7a5.5,5.5,0,0,0-8,0L1.6,20.2a5.9,5.9,0,0,0,0,8L14.9,41.6a4.9,4.9,0,0,0,3,1.3H30.1a5.6,5.6,0,0,0,3-1.3L46.4,28.2A5.9,5.9,0,0,0,46.4,20.2ZM27.2,36l-2,2.1H22.8L20.7,36a.8.8,0,0,1,0-1.1l2.7-2.7a.8.8,0,0,1,1.1,0l2.7,2.7A.7.7,0,0,1,27.2,36Zm.1-11.3-7.7,7.7c-.1.2-.2.2-.3.2H17.5c-.1,0-.2,0-.3-.2l-2.1-2a.8.8,0,0,1,0-1.1l8.4-8.4a.7.7,0,0,1,1,0l2.8,2.7A.8.8,0,0,1,27.3,24.7Zm0-11.2L14,26.8c-.1.2-.2.2-.3.2H11.9a.4.4,0,0,1-.3-.2L9.5,24.7a.8.8,0,0,1,0-1.1l14-14a.7.7,0,0,1,1,0l2.8,2.8A.8.8,0,0,1,27.3,13.5Z" style="fill: #2bb24c"/></svg>
