<svg xmlns="http://www.w3.org/2000/svg" width="48" height="48" viewBox="0 0 48 48"><path d="M20.6,21.8a1.5,1.5,0,0,0,.8-1.6,2,2,0,0,0-.7-1.8,6.4,6.4,0,0,0-3-.5H16.4v4.4h1.2A6.4,6.4,0,0,0,20.6,21.8Z" style="fill: #00a4de"/><path d="M21.6,26.8a5.6,5.6,0,0,0-3-.6H16.4V31h2.1a5.6,5.6,0,0,0,3-.6h0a1.7,1.7,0,0,0,.9-1.7A2.1,2.1,0,0,0,21.6,26.8Z" style="fill: #00a4de"/><path d="M38.2,0H9.8A9.8,9.8,0,0,0,0,9.8V38.2A9.8,9.8,0,0,0,9.8,48H38.2A9.8,9.8,0,0,0,48,38.2V9.8A9.8,9.8,0,0,0,38.2,0ZM31.9,13.1h4.8V27.6H31.9ZM27.3,31.7a5.3,5.3,0,0,1-2.1,2.1,10.2,10.2,0,0,1-2.8.9l-5.3.2H10.9V13.1h6l5.1.2a8.8,8.8,0,0,1,2.6.9,4.9,4.9,0,0,1,1.8,1.7,5.8,5.8,0,0,1,.6,2.6,4.7,4.7,0,0,1-.9,3,5.4,5.4,0,0,1-3,1.6,5.6,5.6,0,0,1,3.6,1.7A5.3,5.3,0,0,1,28,28.7,5.8,5.8,0,0,1,27.3,31.7Zm7,3.2a2.8,2.8,0,0,1,0-5.5,2.8,2.8,0,1,1,0,5.5Z" style="fill: #00a4de"/></svg>
