<svg xmlns="http://www.w3.org/2000/svg" width="48" height="48" viewBox="0 0 48 48"><path d="M24,0a24,24,0,0,0-8.8,46.4,26.6,26.6,0,0,1,.1-6.9c.5-1.9,2.8-12,2.8-12a8.5,8.5,0,0,1-.7-3.5c0-3.4,2-5.8,4.4-5.8s3,1.5,3,3.3-1.3,5.2-2,8a3.5,3.5,0,0,0,3.6,4.4c4.2,0,7.5-4.5,7.5-11s-4.1-9.8-10-9.8A10.4,10.4,0,0,0,13,23.5,9.3,9.3,0,0,0,14.8,29a1.1,1.1,0,0,1,.2.7l-.7,2.7c-.1.5-.4.6-.8.4-3-1.5-4.9-5.8-4.9-9.4,0-7.5,5.5-14.5,15.9-14.5,8.3,0,14.8,6,14.8,13.9S34.1,37.7,26.8,37.7c-2.4,0-4.7-1.2-5.5-2.7l-1.5,5.7a24.5,24.5,0,0,1-3,6.3A24.6,24.6,0,0,0,24,48,24,24,0,0,0,24,0Z" style="fill: #e60019"/></svg>
