<svg xmlns="http://www.w3.org/2000/svg" width="48" height="48" viewBox="0 0 48 48"><path d="M8,0A8,8,0,0,0,0,8V40a8,8,0,0,0,8,8H40a8,8,0,0,0,8-8V8a8,8,0,0,0-8-8ZM37.7,30.7l-6.3,4.9S25.8,40,24,40.8s-1.6-.5-1.5-.9v-.3a19.7,19.7,0,0,0,.3-2.4v-.4l-.2-.5c-.8-.2-4.6-1.9-8.6-3.8,0,0-7.4-3.5-7.4-10.6S14.3,7.8,24,7.8s17.5,6.3,17.5,14.1v3.2Z" style="fill:#68b82b"/><path d="M20.4,18.2H19.2a.3.3,0,0,0-.3.3v7.6c0,.2.1.4.3.4h1.2a.4.4,0,0,0,.4-.4V18.5c0-.2-.2-.3-.4-.3" style="fill:#68b82b"/><path d="M28.9,18.2H27.6a.3.3,0,0,0-.3.3V23l-3.5-4.7H22.3a.3.3,0,0,0-.3.3v7.6c0,.2.1.4.3.4h1.2a.4.4,0,0,0,.4-.4V21.6l3.5,4.7h1.5c.2,0,.3-.2.3-.4V18.5a.3.3,0,0,0-.3-.3" style="fill:#68b82b"/><path d="M17.5,24.6H14.1V18.5a.3.3,0,0,0-.3-.3H12.6c-.2,0-.4.1-.4.3v7.6h0v.3h5.2c.2,0,.3-.2.3-.4V24.9a.3.3,0,0,0-.3-.3" style="fill:#68b82b"/><path d="M35.6,20.1a.4.4,0,0,0,.4-.4V18.5c0-.2-.2-.3-.4-.3H30.5c-.1,0-.1.1-.1.2h0v7.6h0a.4.4,0,0,0,.1.3h5.1a.4.4,0,0,0,.4-.4V24.9c0-.2-.2-.3-.4-.3H32.3V23.3h3.3a.4.4,0,0,0,.4-.4V21.7c0-.2-.2-.3-.4-.3H32.3V20.1Z" style="fill:#68b82b"/></svg>
